# xmcd
#
# Track frame offsets:
#	150
#	22009
#	42187
#	57242
#	72122
#	81773
#	93211
#	112404
#
# Disc length: 1687 seconds
#
# Revision: 0
# Processed by: cddbd v1.5.2PL0 Copyright (c) Steve Scherf et al.
# Submitted via: audiograbber 1.83.01
#
DISCID=66069508
DTITLE=The Midnight Cowboys - Seegmillers Cabin
DYEAR=1998
DGENRE=Country
TTITLE0=SomeDay Baby
TTITLE1=Let It Go
TTITLE2=Are You Ready For The Weekend
TTITLE3=Good To See You Back In Town
TTITLE4=Pinedale Song
TTITLE5=Kundervolt
TTITLE6=Delta Bound
TTITLE7=Hush
EXTD=
EXTT0=
EXTT1=
EXTT2=
EXTT3=
EXTT4=
EXTT5=
EXTT6=
EXTT7=
PLAYORDER=
